<svg width="64" height="680" viewBox="0 0 64 680" fill="none" xmlns="http://www.w3.org/2000/svg">
<path d="M31.5 0V680" stroke="#121212" stroke-width="3"/>
<rect x="6" y="37.8574" width="52" height="52" rx="26" fill="#FEFEFE"/>
<rect x="6" y="37.8574" width="52" height="52" rx="26" stroke="#121212" stroke-width="2"/>
<path d="M35.0085 55.4029V72.8574H31.3182V58.9057H31.2159L27.2188 61.4114V58.1387L31.5398 55.4029H35.0085Z" fill="#121212"/>
<rect x="2.5" y="34.3574" width="59" height="59" rx="29.5" stroke="#FEFEFE" stroke-width="5"/>
<rect x="4.5" y="146.814" width="55" height="55" rx="27.5" fill="#E51236"/>
<rect x="4.5" y="146.814" width="55" height="55" rx="27.5" stroke="#FEFEFE" stroke-width="5"/>
<path d="M25.4148 183.314V180.655L31.6278 174.903C32.1563 174.391 32.5994 173.931 32.9574 173.522C33.321 173.113 33.5966 172.712 33.7841 172.32C33.9716 171.922 34.0653 171.493 34.0653 171.033C34.0653 170.522 33.9489 170.081 33.7159 169.712C33.483 169.337 33.1648 169.05 32.7614 168.851C32.358 168.647 31.9006 168.545 31.3892 168.545C30.8551 168.545 30.3892 168.653 29.9915 168.868C29.5938 169.084 29.2869 169.394 29.071 169.797C28.8551 170.201 28.7472 170.681 28.7472 171.238H25.2443C25.2443 170.096 25.5028 169.104 26.0199 168.263C26.5369 167.422 27.2614 166.772 28.1932 166.312C29.125 165.851 30.1989 165.621 31.4148 165.621C32.6648 165.621 33.7528 165.843 34.679 166.286C35.6108 166.724 36.3352 167.331 36.8523 168.11C37.3693 168.888 37.6278 169.78 37.6278 170.786C37.6278 171.445 37.4972 172.096 37.2358 172.738C36.9801 173.38 36.5227 174.093 35.8636 174.877C35.2045 175.655 34.2756 176.59 33.0767 177.681L30.5284 180.178V180.297H37.858V183.314H25.4148Z" fill="#FEFEFE"/>
<rect x="6" y="258.771" width="52" height="52" rx="26" fill="#FEFEFE"/>
<rect x="6" y="258.771" width="52" height="52" rx="26" stroke="#121212" stroke-width="2"/>
<path d="M31.8665 294.01C30.5938 294.01 29.4602 293.791 28.4659 293.354C27.4773 292.911 26.696 292.303 26.1222 291.53C25.554 290.752 25.2614 289.854 25.2443 288.837H28.9602C28.983 289.263 29.1222 289.638 29.3778 289.962C29.6392 290.28 29.9858 290.527 30.4176 290.703C30.8494 290.879 31.3352 290.968 31.875 290.968C32.4375 290.968 32.9347 290.868 33.3665 290.669C33.7983 290.47 34.1364 290.195 34.3807 289.843C34.625 289.49 34.7472 289.084 34.7472 288.624C34.7472 288.158 34.6165 287.746 34.3551 287.388C34.0994 287.024 33.7301 286.74 33.2472 286.536C32.7699 286.331 32.2017 286.229 31.5426 286.229H29.9148V283.519H31.5426C32.0994 283.519 32.5909 283.422 33.017 283.229C33.4489 283.036 33.7841 282.769 34.0227 282.428C34.2614 282.081 34.3807 281.678 34.3807 281.218C34.3807 280.78 34.2756 280.396 34.0653 280.067C33.8608 279.732 33.571 279.47 33.196 279.283C32.8267 279.095 32.3949 279.002 31.9006 279.002C31.4006 279.002 30.9432 279.093 30.5284 279.274C30.1136 279.45 29.7812 279.703 29.5312 280.033C29.2812 280.362 29.1477 280.749 29.1307 281.192H25.5938C25.6108 280.186 25.8977 279.3 26.4545 278.533C27.0114 277.766 27.7614 277.166 28.7045 276.735C29.6534 276.297 30.7244 276.078 31.9176 276.078C33.1222 276.078 34.1761 276.297 35.0795 276.735C35.983 277.172 36.6847 277.763 37.1847 278.507C37.6903 279.246 37.9403 280.075 37.9347 280.996C37.9403 281.973 37.6364 282.789 37.0227 283.442C36.4148 284.095 35.6222 284.51 34.6449 284.686V284.823C35.929 284.987 36.9063 285.433 37.5767 286.161C38.2528 286.882 38.5881 287.786 38.5824 288.871C38.5881 289.865 38.3011 290.749 37.7216 291.521C37.1477 292.294 36.3551 292.902 35.3438 293.345C34.3324 293.789 33.1733 294.01 31.8665 294.01Z" fill="#121212"/>
<rect x="2.5" y="255.271" width="59" height="59" rx="29.5" stroke="#FEFEFE" stroke-width="5"/>
<rect x="6" y="369.229" width="52" height="52" rx="26" fill="#FEFEFE"/>
<rect x="6" y="369.229" width="52" height="52" rx="26" stroke="#121212" stroke-width="2"/>
<path d="M24.6506 401.16V398.254L31.9375 386.774H34.4432V390.797H32.9602L28.3665 398.067V398.203H38.7216V401.16H24.6506ZM33.0284 404.229V400.274L33.0966 398.987V386.774H36.5568V404.229H33.0284Z" fill="#121212"/>
<rect x="2.5" y="365.729" width="59" height="59" rx="29.5" stroke="#FEFEFE" stroke-width="5"/>
<rect x="6" y="479.686" width="52" height="52" rx="26" fill="#FEFEFE"/>
<rect x="6" y="479.686" width="52" height="52" rx="26" stroke="#121212" stroke-width="2"/>
<path d="M31.7898 514.924C30.5852 514.924 29.5114 514.703 28.5682 514.259C27.6307 513.816 26.8864 513.205 26.3352 512.427C25.7841 511.649 25.4972 510.757 25.4744 509.751H29.054C29.0938 510.427 29.3778 510.975 29.9062 511.396C30.4347 511.816 31.0625 512.026 31.7898 512.026C32.3693 512.026 32.8807 511.899 33.3239 511.643C33.7727 511.382 34.1222 511.021 34.3722 510.561C34.6278 510.095 34.7557 509.561 34.7557 508.958C34.7557 508.345 34.625 507.805 34.3636 507.339C34.108 506.873 33.7528 506.509 33.2983 506.248C32.8438 505.987 32.3239 505.853 31.7386 505.847C31.2273 505.847 30.7301 505.953 30.2472 506.163C29.7699 506.373 29.3977 506.66 29.1307 507.024L25.8494 506.436L26.6761 497.231H37.3466V500.248H29.7188L29.267 504.62H29.3693C29.6761 504.188 30.1392 503.83 30.7585 503.546C31.3778 503.262 32.071 503.12 32.8381 503.12C33.8892 503.12 34.8267 503.367 35.6506 503.862C36.4744 504.356 37.125 505.035 37.6023 505.899C38.0795 506.757 38.3153 507.745 38.3097 508.865C38.3153 510.041 38.0426 511.086 37.4915 512.001C36.946 512.91 36.1818 513.626 35.1989 514.149C34.2216 514.666 33.0852 514.924 31.7898 514.924Z" fill="#121212"/>
<rect x="2.5" y="476.186" width="59" height="59" rx="29.5" stroke="#FEFEFE" stroke-width="5"/>
<rect x="6" y="590.143" width="52" height="52" rx="26" fill="#FEFEFE"/>
<rect x="6" y="590.143" width="52" height="52" rx="26" stroke="#121212" stroke-width="2"/>
<path d="M32.1136 625.381C31.2159 625.376 30.3494 625.225 29.5142 624.93C28.6847 624.634 27.9403 624.154 27.2812 623.489C26.6222 622.824 26.0994 621.944 25.7131 620.847C25.3324 619.751 25.142 618.404 25.142 616.807C25.1477 615.341 25.3153 614.032 25.6449 612.878C25.9801 611.719 26.4574 610.736 27.0767 609.93C27.7017 609.123 28.4489 608.509 29.3182 608.089C30.1875 607.662 31.1619 607.449 32.2415 607.449C33.4063 607.449 34.4347 607.677 35.3267 608.131C36.2188 608.58 36.9347 609.191 37.4744 609.964C38.0199 610.736 38.3494 611.603 38.4631 612.563H34.8239C34.6818 611.955 34.3835 611.478 33.929 611.131C33.4744 610.785 32.9119 610.611 32.2415 610.611C31.1051 610.611 30.2415 611.106 29.6506 612.094C29.0653 613.083 28.767 614.427 28.7557 616.126H28.875C29.1364 615.608 29.4886 615.168 29.9318 614.805C30.3807 614.435 30.8892 614.154 31.4574 613.961C32.0312 613.762 32.6364 613.662 33.2727 613.662C34.3068 613.662 35.2273 613.907 36.0341 614.395C36.8409 614.878 37.4773 615.543 37.9432 616.39C38.4091 617.236 38.642 618.205 38.642 619.296C38.642 620.478 38.3665 621.529 37.8153 622.449C37.2699 623.37 36.5057 624.091 35.5227 624.614C34.5455 625.131 33.4091 625.387 32.1136 625.381ZM32.0966 622.483C32.6648 622.483 33.1733 622.347 33.6222 622.074C34.071 621.802 34.4233 621.432 34.679 620.966C34.9347 620.501 35.0625 619.978 35.0625 619.398C35.0625 618.819 34.9347 618.299 34.679 617.839C34.429 617.378 34.0824 617.012 33.6392 616.739C33.196 616.466 32.6903 616.33 32.1222 616.33C31.696 616.33 31.3011 616.41 30.9375 616.569C30.5795 616.728 30.2642 616.949 29.9915 617.233C29.7244 617.518 29.5142 617.847 29.3608 618.222C29.2074 618.591 29.1307 618.986 29.1307 619.407C29.1307 619.969 29.2585 620.483 29.5142 620.949C29.7756 621.415 30.1278 621.787 30.571 622.066C31.0199 622.344 31.5284 622.483 32.0966 622.483Z" fill="#121212"/>
<rect x="2.5" y="586.643" width="59" height="59" rx="29.5" stroke="#FEFEFE" stroke-width="5"/>
</svg>
